<?xml version="1.0" standalone="no"?><!DOCTYPE svg PUBLIC "-//W3C//DTD SVG 1.1//EN" "http://www.w3.org/Graphics/SVG/1.1/DTD/svg11.dtd"><svg t="1687940140286" class="icon" viewBox="0 0 1024 1024" version="1.1" xmlns="http://www.w3.org/2000/svg" p-id="1778" xmlns:xlink="http://www.w3.org/1999/xlink" width="200" height="200"><path d="M515.072 513.024m-481.28 0a481.28 481.28 0 1 0 962.56 0 481.28 481.28 0 1 0-962.56 0Z" fill="#2A78FF" opacity=".06" p-id="1779"></path><path d="M450.56 494.592h-100.352c-13.312 0-24.576-11.264-24.576-24.576v-100.352c0-13.312 11.264-24.576 24.576-24.576H450.56c13.312 0 24.576 11.264 24.576 24.576v100.352c0 13.312-11.264 24.576-24.576 24.576z m-100.352-124.928v100.352H450.56v-100.352h-100.352z m258.048 145.408c-6.144 0-13.312-2.048-17.408-7.168l-70.656-70.656c-5.12-5.12-8.192-11.264-8.192-17.408 0-6.144 2.048-13.312 7.168-17.408l70.656-70.656c5.12-5.12 11.264-7.168 17.408-7.168 6.144 0 13.312 2.048 17.408 7.168l70.656 70.656c5.12 5.12 7.168 11.264 7.168 17.408 0 6.144-2.048 13.312-7.168 17.408L624.64 507.904c-4.096 5.12-10.24 7.168-16.384 7.168z m0-165.888L537.6 419.84l70.656 70.656 70.656-70.656-70.656-70.656zM450.56 702.464h-100.352c-13.312 0-24.576-11.264-24.576-24.576v-100.352c0-13.312 11.264-24.576 24.576-24.576H450.56c13.312 0 24.576 11.264 24.576 24.576v100.352c0 13.312-11.264 24.576-24.576 24.576z m-100.352-124.928v100.352H450.56v-100.352h-100.352z m308.224 124.928h-100.352c-13.312 0-24.576-11.264-24.576-24.576v-100.352c0-13.312 11.264-24.576 24.576-24.576h100.352c13.312 0 24.576 11.264 24.576 24.576v100.352c0 13.312-11.264 24.576-24.576 24.576z m-100.352-124.928v100.352h100.352v-100.352h-100.352z m0 0" fill="#2A78FF" p-id="1780"></path></svg>